<svg width="16" height="18" viewBox="0 0 16 18" fill="none" xmlns="http://www.w3.org/2000/svg">
<path d="M7.11125 0.899998C7.11125 0.402943 7.50921 0 8.00013 0C8.49105 0 8.88901 0.402943 8.88901 0.899998V15.1163L14.5261 10.1223C14.8956 9.79532 15.4573 9.83362 15.7805 10.2076C16.1034 10.5817 16.0656 11.1504 15.6963 11.4776L8.58519 17.7776C8.25017 18.0741 7.75009 18.0741 7.41506 17.7776L0.303997 11.4776L0.238025 11.4134C-0.0692036 11.08 -0.0829836 10.5583 0.219796 10.2076C0.522812 9.85696 1.03566 9.80119 1.40295 10.0652L1.47413 10.1223L7.11125 15.1163V0.899998Z" fill="#525252"/>
</svg>
