<svg width="22" height="22" viewBox="0 0 22 22" fill="none" xmlns="http://www.w3.org/2000/svg">
<path d="M7.23594 17.9266V22H4.64063V13.5437H3.17969C2.18969 13.5437 1.9651 12.6844 1.99375 12.2203V4.675H0V1.99375H1.99375V1.2375H4.64063V9.72812L8.47344 0.75625H9.74531L12.0141 5.51719L14.3172 0H15.7953L20.0062 6.82344V8.50781L22 10.2266V14.4375H20.0062V22H18.0469C18.0411 21.8568 18.0331 21.2437 18.0469 20.1437C18.0606 19.0437 17.3193 17.7031 16.9469 17.1703C16.3052 16.1964 14.2863 14.2587 11.3438 14.3C8.40125 14.3412 7.37917 16.7349 7.23594 17.9266Z" fill="#9D9D9D"/>
</svg>
