<svg width="30" height="30" viewBox="0 0 30 30" fill="none" xmlns="http://www.w3.org/2000/svg">
<g opacity="0.49">
<path d="M18.2929 10.2929C18.6834 9.90237 19.3164 9.90237 19.707 10.2929C20.0975 10.6834 20.0975 11.3164 19.707 11.707L11.707 19.707C11.3164 20.0975 10.6834 20.0975 10.2929 19.707C9.90237 19.3164 9.90237 18.6834 10.2929 18.2929L18.2929 10.2929Z" fill="white"/>
<path d="M10.2929 10.2929C10.6834 9.90237 11.3164 9.90237 11.707 10.2929L19.707 18.2929C20.0975 18.6834 20.0975 19.3164 19.707 19.707C19.3164 20.0975 18.6834 20.0975 18.2929 19.707L10.2929 11.707C9.90237 11.3164 9.90237 10.6834 10.2929 10.2929Z" fill="white"/>
</g>
</svg>
