<?xml version="1.0" encoding="utf-8"?>
<svg width="22" height="22" viewBox="0 0 22 22" fill="none" xmlns="http://www.w3.org/2000/svg">
  <path d="M14 11C14 9.34315 12.6569 8 11 8C9.34315 8 8 9.34315 8 11C8 12.6569 9.34315 14 11 14V16C8.23858 16 6 13.7614 6 11C6 8.23858 8.23858 6 11 6C13.7614 6 16 8.23858 16 11C16 13.7614 13.7614 16 11 16V14C12.6569 14 14 12.6569 14 11Z" fill="white"/>
  <path d="M3 11C3 11.5523 2.55228 12 2 12C1.44772 12 1 11.5523 1 11C1 10.4477 1.44772 10 2 10C2.55228 10 3 10.4477 3 11Z" fill="white"/>
  <path d="M5 4C5 4.55228 4.55228 5 4 5C3.44772 5 3 4.55228 3 4C3 3.44772 3.44772 3 4 3C4.55228 3 5 3.44772 5 4Z" fill="white"/>
  <path d="M12 2C12 2.55228 11.5523 3 11 3C10.4477 3 10 2.55228 10 2C10 1.44772 10.4477 1 11 1C11.5523 1 12 1.44772 12 2Z" fill="white"/>
  <path d="M19 4C19 4.55228 18.5523 5 18 5C17.4477 5 17 4.55228 17 4C17 3.44772 17.4477 3 18 3C18.5523 3 19 3.44772 19 4Z" fill="white"/>
  <path d="M21 11C21 11.5523 20.5523 12 20 12C19.4477 12 19 11.5523 19 11C19 10.4477 19.4477 10 20 10C20.5523 10 21 10.4477 21 11Z" fill="white"/>
  <path d="M19 18C19 18.5523 18.5523 19 18 19C17.4477 19 17 18.5523 17 18C17 17.4477 17.4477 17 18 17C18.5523 17 19 17.4477 19 18Z" fill="white"/>
  <path d="M12 20C12 20.5523 11.5523 21 11 21C10.4477 21 10 20.5523 10 20C10 19.4477 10.4477 19 11 19C11.5523 19 12 19.4477 12 20Z" fill="white"/>
  <path d="M5 18C5 18.5523 4.55228 19 4 19C3.44772 19 3 18.5523 3 18C3 17.4477 3.44772 17 4 17C4.55228 17 5 17.4477 5 18Z" fill="white"/>
</svg>