<svg width="32" height="25" viewBox="0 0 32 25" fill="none" xmlns="http://www.w3.org/2000/svg">
<path d="M26.8072 2.00082C24.7888 1.07474 22.6245 0.392428 20.3615 0.00163826C20.3203 -0.00590109 20.2791 0.0129473 20.2579 0.050644C19.9796 0.545728 19.6713 1.1916 19.4553 1.69925C17.0214 1.33485 14.5999 1.33485 12.2158 1.69925C11.9999 1.18029 11.6804 0.545728 11.4008 0.050644C11.3795 0.0142038 11.3384 -0.00464454 11.2972 0.00163826C9.03545 0.391171 6.87108 1.07348 4.85151 2.00082C4.83404 2.00836 4.81906 2.02093 4.80908 2.03726C0.703782 8.17052 -0.420837 14.153 0.130863 20.0613C0.133359 20.0902 0.149586 20.1179 0.172053 20.1355C2.88062 22.1246 5.50432 23.3322 8.07933 24.1326C8.12052 24.1452 8.16421 24.1301 8.19042 24.0961C8.79954 23.2643 9.3425 22.3872 9.80807 21.4649C9.83554 21.4109 9.80932 21.3468 9.75315 21.3254C8.8919 20.9987 8.07184 20.6004 7.28299 20.148C7.22058 20.1116 7.21559 20.0224 7.273 19.9797C7.43901 19.8553 7.60502 19.7258 7.76354 19.5952C7.79225 19.5713 7.83219 19.5663 7.86589 19.5813C13.0484 21.9474 18.659 21.9474 23.7803 19.5813C23.814 19.565 23.8539 19.57 23.8839 19.5939C24.0424 19.7246 24.2084 19.8553 24.3757 19.9797C24.4331 20.0224 24.4294 20.1116 24.367 20.148C23.5781 20.6092 22.758 20.9987 21.8955 21.3242C21.8394 21.3455 21.8144 21.4109 21.8419 21.4649C22.3174 22.386 22.8604 23.263 23.4583 24.0949C23.4832 24.1301 23.5282 24.1452 23.5694 24.1326C26.1569 23.3322 28.7806 22.1246 31.4891 20.1355C31.5128 20.1179 31.5278 20.0915 31.5303 20.0626C32.1906 13.2319 30.4244 7.29847 26.8484 2.03852C26.8396 2.02093 26.8246 2.00836 26.8072 2.00082ZM10.582 16.4638C9.02172 16.4638 7.73608 15.0313 7.73608 13.2722C7.73608 11.513 8.99675 10.0805 10.582 10.0805C12.1796 10.0805 13.4528 11.5255 13.4278 13.2722C13.4278 15.0313 12.1672 16.4638 10.582 16.4638ZM21.1042 16.4638C19.5439 16.4638 18.2583 15.0313 18.2583 13.2722C18.2583 11.513 19.519 10.0805 21.1042 10.0805C22.7019 10.0805 23.975 11.5255 23.9501 13.2722C23.9501 15.0313 22.7019 16.4638 21.1042 16.4638Z" fill="#9D9D9D"/>
</svg>
