<svg width="22" height="22" viewBox="0 0 22 22" fill="none" xmlns="http://www.w3.org/2000/svg">
<path d="M14 11C14 9.34315 12.6569 8 11 8C9.34315 8 8 9.34315 8 11C8 12.6569 9.34315 14 11 14V16C8.23858 16 6 13.7614 6 11C6 8.23858 8.23858 6 11 6C13.7614 6 16 8.23858 16 11C16 13.7614 13.7614 16 11 16V14C12.6569 14 14 12.6569 14 11Z" fill="#525252"/>
<path d="M18.293 2.29295C18.6835 1.90243 19.3166 1.90243 19.7071 2.29295C20.0976 2.68348 20.0976 3.31649 19.7071 3.70702L17.7071 5.70702C17.3166 6.09754 16.6835 6.09754 16.293 5.70702C15.9025 5.31649 15.9025 4.68348 16.293 4.29295L18.293 2.29295Z" fill="#525252"/>
<path d="M4.29302 16.293C4.68354 15.9024 5.31655 15.9024 5.70708 16.293C6.0976 16.6835 6.0976 17.3165 5.70708 17.707L3.70708 19.707C3.31655 20.0975 2.68354 20.0975 2.29302 19.707C1.90249 19.3165 1.90249 18.6835 2.29302 18.293L4.29302 16.293Z" fill="#525252"/>
<path d="M17.707 16.293C17.3165 15.9024 16.6834 15.9024 16.2929 16.293C15.9024 16.6835 15.9024 17.3165 16.2929 17.707L18.2929 19.707C18.6834 20.0975 19.3165 20.0975 19.707 19.707C20.0975 19.3165 20.0975 18.6835 19.707 18.293L17.707 16.293Z" fill="#525252"/>
<path d="M3.70698 2.29295C3.31646 1.90243 2.68345 1.90243 2.29292 2.29295C1.9024 2.68348 1.9024 3.31649 2.29292 3.70702L4.29292 5.70702C4.68345 6.09754 5.31646 6.09754 5.70698 5.70702C6.09751 5.31649 6.09751 4.68348 5.70698 4.29295L3.70698 2.29295Z" fill="#525252"/>
<path d="M10 3V1C10 0.447715 10.4477 0 11 0C11.5523 0 12 0.447715 12 1V3C12 3.55228 11.5523 4 11 4C10.4477 4 10 3.55228 10 3Z" fill="#525252"/>
<path d="M10 21V19C10 18.4477 10.4477 18 11 18C11.5523 18 12 18.4477 12 19V21C12 21.5523 11.5523 22 11 22C10.4477 22 10 21.5523 10 21Z" fill="#525252"/>
<path d="M19 12C18.4477 12 18 11.5523 18 11C18 10.4477 18.4477 10 19 10H21C21.5523 10 22 10.4477 22 11C22 11.5523 21.5523 12 21 12H19Z" fill="#525252"/>
<path d="M1 12C0.447715 12 0 11.5523 0 11C0 10.4477 0.447715 10 1 10H3C3.55228 10 4 10.4477 4 11C4 11.5523 3.55228 12 3 12H1Z" fill="#525252"/>
</svg>
