<?xml version="1.0"?>
<svg width="403" height="268" xmlns="http://www.w3.org/2000/svg" xmlns:svg="http://www.w3.org/2000/svg" preserveAspectRatio="xMidYMid meet" version="1.0">
 <metadata>Created by potrace 1.10, written by Peter Selinger 2001-2011</metadata>

 <g class="layer">
  <title>Layer 1</title>
  <path d="m-16.9,160.8l23.9,4.2l28,12l10,0.5c0,0 0.1,-24.7 0.1,-25.7c0,-1 3,-14.5 3.4,-14.8c0.4,-0.3 7.6,-1.7 7.5,-2c-0.1,-0.3 5.1,14.8 5.6,16.3c0.5,1.5 10.5,35.5 10.4,35.7c-0.1,0.2 7.6,23.3 7.5,23c-0.1,-0.3 5.6,5.3 5.5,5c-0.1,-0.3 4.6,-6.7 4.1,-7.7c-0.5,-1 2.5,-9 2.5,-10c0,-1 0.5,-28 0.5,-29.5c0,-1.5 1,-41 0.5,-41.5c-0.5,-0.5 -0.5,-26 -0.6,-26.3c-0.1,-0.3 3.6,-15.7 3.5,-15.5c-0.1,0.2 6.6,-4.7 7,-5c0.4,-0.3 5.6,-1.2 6,-1c0.4,0.2 3.6,7.8 3.5,8c-0.1,0.2 30.1,172.3 30,172.5c-0.1,0.2 8.6,1.8 9,2c0.4,0.2 9.6,0.8 10,0.5c0.4,-0.3 4.1,-12.7 4,-12.5c-0.1,0.2 12.1,-123.7 12,-124c-0.1,-0.3 6.6,-41.7 6.5,-42c-0.1,-0.3 6.6,-16.7 7,-17c0.4,-0.3 14.6,-3.7 14.5,-4c-0.1,-0.3 9.6,4.3 10,4c0.4,-0.3 5.1,10.3 5.5,10.5c0.4,0.2 7.1,50.3 7,50.5c-0.1,0.2 1.6,58.8 1.5,58.5c-0.1,-0.3 6.6,62.8 6.5,62.5c-0.1,-0.3 6.1,15.8 6.1,15.3c0,-0.5 8.5,-0.5 8.4,-0.3c-0.1,0.2 11.6,-11.7 11.1,-12.7c-0.5,-1 8,-28 7.5,-31c-0.5,-3 12.5,-96 12.5,-96.5c0,-0.5 9,-36 8.9,-35.8c-0.1,0.2 5.6,-8.7 5.5,-9c-0.1,-0.3 6.6,0.3 6.5,0c-0.1,-0.3 6.1,4.3 6,4.5c-0.1,0.2 5.1,27.8 5,27.5c-0.1,-0.3 -1.9,65.3 -2,65c-0.1,-0.3 2.1,35.3 2,35c-0.1,-0.3 6.6,2.8 6.5,3c-0.1,0.2 5.6,-14.7 6.1,-15.7c0.5,-1 15,-45 15.4,-44.8c0.4,0.2 6.6,-18.2 6.5,-18c-0.1,0.2 8.1,-2.2 8,-2c-0.1,0.2 1.1,14.3 1.5,14.5c0.4,0.2 1.1,19.8 1,20c-0.1,0.2 2.1,12.8 2.5,12.5c0.4,-0.3 14.1,-3.7 14.1,-4.2c0,-0.5 16.5,-7 16.4,-6.8c-0.1,0.2 5.1,-13.2 5.5,-13.5c0.4,-0.3 8.6,-22.2 8.5,-22c-0.1,0.2 39.6,16.8 40,16.5c0.4,-0.3 -0.9,139.3 -0.5,139.5c0.4,0.2 -482.4,-4.7 -482,-4.5c0.4,0.2 20.6,-123.7 20.6,-123.7z" fill="#1a1a1a" id="svg_17" stroke="#1a1a1a" stroke-linecap="round" stroke-linejoin="round" stroke-width="2"/>
  <path d="m392.6,154.9c0,0 -36.5,-32 -37.5,-32.5c-1,-0.5 -63,-66.5 -63.1,-66.4c-0.1,0.1 -51.9,-37.1 -52,-37.5c-0.1,-0.4 -27.9,-10.6 -28.9,-11.6c-1,-1 -17.5,-1.5 -17.6,-1.9c-0.1,-0.4 -14.4,-23.6 -14.5,-23.5c-0.1,0.1 224.1,0.4 224,1c-0.1,0.6 49.1,19.4 49.5,19c0.4,-0.4 -16.4,137.4 -16.9,137.9c-0.5,0.5 -21,25.5 -23,25c-2,-0.5 -15.5,1.5 -16,1.5c-0.5,0 -4,-11 -4,-11z" fill="#1a1a1a" id="svg_16" stroke="#1a1a1a" stroke-linecap="round" stroke-linejoin="round" stroke-width="2" transform="matrix(1, 0, 0, 1, 0, 0)"/>
  <path d="m-5.9,167.4l11.9,-1.4l111,-111l68,-46l17,-3l-1,-13l-218.5,-10.5l11.6,184.9z" fill="#1a1a1a" id="svg_15" stroke="#1a1a1a" stroke-linecap="round" stroke-linejoin="round" stroke-width="2" transform="matrix(1, 0, 0, 1, 0, 0)"/>
  <g fill="#000000" id="svg_1" transform="translate(-23.72, -24.32) matrix(0.05, 0, 0, -0.05, 0, 1238)">
   <path d="m4166,24220c-501,-131 -808,-364 -1825,-1381c-402,-401 -980,-959 -1285,-1238c-761,-697 -760,-691 -86,-907c509,-162 514,-158 518,366c3,576 42,544 254,-205c213,-756 280,-925 373,-948c234,-59 307,373 262,1557c-26,702 -15,851 75,1016c51,94 115,150 148,130c45,-28 184,-806 319,-1790c227,-1647 312,-1900 635,-1900c323,1 399,306 496,2000c79,1383 115,1688 222,1873c168,293 447,177 535,-223c53,-244 81,-571 143,-1650c97,-1694 173,-1999 496,-2000c304,0 416,295 584,1540c170,1261 318,2118 370,2150c34,21 103,-40 152,-134c85,-166 96,-335 70,-1024c-44,-1170 30,-1604 263,-1545c93,23 160,192 373,948c212,749 251,781 254,205c4,-524 9,-528 518,-366c674,216 675,210 -86,907c-305,279 -883,837 -1285,1238c-1300,1301 -1781,1568 -2493,1381zm692,-301c399,-110 873,-433 1360,-925l188,-190l-71,-62c-176,-155 -315,-774 -495,-2212c-135,-1076 -211,-1352 -392,-1435c-150,-68 -182,103 -249,1325c-106,1970 -154,2301 -372,2561c-305,361 -721,146 -847,-438c-66,-307 -107,-786 -180,-2123c-67,-1231 -98,-1393 -248,-1325c-181,83 -257,359 -392,1435c-180,1438 -319,2057 -495,2212l-71,62l188,190c799,808 1451,1098 2076,925zm-2679,-1774c-19,-176 -17,-346 9,-857c41,-808 42,-1107 4,-1159c-39,-53 -49,-27 -164,431c-170,678 -308,1023 -443,1110l-62,40l332,334c183,184 336,331 340,328c4,-4 -4,-106 -16,-227zm5236,-473c-136,-92 -274,-438 -443,-1112c-193,-766 -229,-604 -160,707c29,553 28,746 -5,1023l-11,100l340,-338l341,-338l-62,-42zm-6107,-243c-17,-54 -36,-214 -42,-354c-7,-140 -17,-255 -23,-255c-15,0 -470,147 -483,156c-5,4 121,131 280,283c160,152 292,275 294,273c3,-2 -9,-48 -26,-103zm6932,-447c-1,-10 -319,-117 -462,-156c-27,-8 -33,26 -44,247c-6,142 -26,302 -43,357c-17,55 -31,103 -31,107c0,3 131,-117 290,-269c160,-151 290,-280 290,-286z" fill="#ffffff" id="svg_2"/>
  </g>
 </g>
</svg>