<svg width="22" height="16" viewBox="0 0 22 16" fill="none" xmlns="http://www.w3.org/2000/svg">
<path fill-rule="evenodd" clip-rule="evenodd" d="M19.7553 1.94784C17.5776 -0.46839 13.8517 -0.663278 11.4332 1.51208C9.01481 3.68744 8.81951 7.40966 10.997 9.82588L12.3114 11.284C12.4243 11.4093 12.5435 11.5255 12.668 11.633C12.1037 11.9591 11.6778 12.0756 11.3924 12.0756C10.9949 12.0756 10.3133 11.8566 9.35615 11.2152C8.4444 10.6042 7.4948 9.7539 6.61036 8.84908C5.73385 7.95242 4.96586 7.04846 4.41464 6.36474C4.14021 6.02417 3.92233 5.74182 3.77468 5.54672C3.7009 5.44938 3.64485 5.37397 3.6082 5.32433C3.58987 5.29941 3.57641 5.28093 3.56804 5.26954L3.55787 5.25557C2.92412 4.37653 1.6971 4.1767 0.816819 4.8095C-0.0637202 5.44251 -0.263448 6.66942 0.370173 7.54911L0.391896 7.57897C0.404565 7.59638 0.422481 7.62088 0.445388 7.65203C0.491222 7.71413 0.557146 7.80266 0.641438 7.91417C0.809893 8.13657 1.05236 8.45071 1.35492 8.82609C1.95768 9.57384 2.81017 10.5788 3.79973 11.5911C4.78119 12.5949 5.94317 13.6538 7.16744 14.4742C8.34654 15.2645 9.82546 16 11.3924 16C12.9797 16 14.4208 15.2484 15.5482 14.4368C16.7114 13.5995 17.7802 12.5236 18.6657 11.5111C19.5596 10.4892 20.3148 9.47608 20.8441 8.72338C21.1099 8.34521 21.3218 8.02849 21.4687 7.80395C21.5423 7.69135 21.5997 7.60175 21.6399 7.53858C21.6599 7.50721 21.6756 7.48207 21.6868 7.46424L21.7066 7.43243C21.8963 7.12495 21.9909 6.78588 21.9987 6.44918C22.0372 5.18488 21.2396 3.55723 20.0182 2.23942L19.7553 1.94784ZM16.836 4.57378C16.1101 3.76845 14.8679 3.70334 14.0618 4.42853C13.2557 5.15372 13.1907 6.39439 13.9164 7.19973L15.6906 8.94835L15.7076 8.92901C16.44 8.09144 17.0771 7.24635 17.5477 6.58326C17.8297 5.9496 17.5756 5.39459 17.0988 4.86536L16.836 4.57378Z" fill="#9D9D9D"/>
</svg>
