<?xml version="1.0"?>
<svg width="403" height="267" xmlns="http://www.w3.org/2000/svg" xmlns:svg="http://www.w3.org/2000/svg" preserveAspectRatio="xMidYMid meet" version="1.0">
 <metadata>Created by potrace 1.10, written by Peter Selinger 2001-2011</metadata>

 <g class="layer" display="inline">
  <title>Layer 1</title>
  <a href="http://" id="svg_7">
   <path d="m184.77,2.1c-14,3.7 -30.1,12.6 -46.8,26.1c-4.4,3.5 -24.4,22.8 -44.5,42.9c-20.1,20.1 -49,48 -64.2,61.9c-17.5,16.1 -28.1,26.5 -28.7,28.3c-2.4,6.8 2.2,10 24.4,17.1c14.8,4.7 20.4,5.4 23.4,3c2.3,-1.9 2.4,-2.3 2.5,-21.3c0.2,-28.8 2.1,-27.2 12.7,10.2c10.7,37.8 14,46.3 18.6,47.5c3.1,0.7 6.5,-1.1 8.6,-4.6c4.7,-8 6.1,-31.1 4.6,-73.3c-1.3,-35.1 -0.8,-42.5 3.7,-50.8c2.5,-4.7 5.8,-7.5 7.4,-6.5c0.5,0.3 1.4,2.2 2,4.3c1.9,6.5 9.8,54.7 14,85.2c7.9,57.8 10.8,72.8 16.1,83.3c6.9,13.8 19.2,15.8 27.5,4.6c6.7,-9.1 9.1,-26.1 12.9,-92.9c4.7,-81.7 6.7,-93.6 16.9,-99.9c4.4,-2.8 7.2,-2.6 11.8,0.5c9,6.3 11.6,20.5 15.3,83.9c4.6,80.4 6.5,95.7 13.2,107.3c5.5,9.6 16.5,11 24,3c7.2,-7.7 11.3,-24.3 17.8,-71.8c8.2,-60 15.5,-103.3 18,-106.7c1.3,-1.7 1.5,-1.6 4.4,1.1c3.8,3.7 6.7,11.1 7.6,19.7c0.4,3.7 0.2,20.3 -0.5,37c-2.1,54.7 1.2,76.9 11.5,76.9c5.9,0 8.2,-5 19,-42.8c7.5,-26.6 10.6,-35.2 12.4,-35.2c1.9,0 2.3,4.3 1.9,22c-0.2,13.7 0,18.2 1,19.2c2.5,2.5 12,1.3 25.7,-3.2c21.8,-7.1 26.3,-10.3 23.5,-16.9c-0.7,-1.8 -13.2,-14 -30.3,-29.7c-16.1,-14.7 -44.9,-42.6 -64.2,-61.8c-35.5,-35.6 -44.5,-43.7 -59.3,-53.3c-22.7,-14.9 -43.7,-19.6 -63.9,-14.3zm33.4,14.7c8.5,2.1 26.7,11.2 36.6,18.3c4.2,3 7.7,5.7 7.7,6c0,0.3 -3,1.3 -6.6,2.3c-9.8,2.5 -18.9,8.1 -27.4,16.7l-7.5,7.5l-4,-4.3c-10,-11.1 -22.1,-10.8 -31.8,0.8c-10.9,12.9 -13.3,29 -18.7,128c-2.9,53 -4,61.9 -8.2,65.6c-4,3.7 -10.1,-2.6 -14.2,-14.6c-3.4,-10.3 -4.9,-19.3 -9.6,-56.5c-6.7,-53.6 -13.3,-89.1 -19,-102.3c-1.2,-2.8 -3.8,-6.6 -5.8,-8.3l-3.5,-3.1l9.4,-9.5c18,-18.1 38,-33.5 53.2,-40.7c17.7,-8.4 32.6,-10.2 49.4,-5.9zm-132.8,89c-0.9,8.8 -0.8,17.3 0.5,42.9c2,40.4 2.1,55.4 0.2,57.9c-1.4,1.9 -1.5,1.9 -2.5,-0.5c-0.6,-1.4 -3.1,-10.8 -5.7,-21c-8.5,-33.9 -15.4,-51.2 -22.1,-55.5l-3.2,-2l16.7,-16.7c9.1,-9.2 16.8,-16.6 16.9,-16.4c0.2,0.2 -0.1,5.3 -0.8,11.3zm263.3,22.4c-7.3,2.7 -14.5,20.2 -24.3,58.9c-2.7,10.7 -5.4,19.9 -5.9,20.4c-3,3 -3.8,-13.6 -2,-45.2l1,-17.3l3.3,-4.2c4.9,-6 9.4,-15 11.4,-22.9l1.7,-6.8l8.3,8.2c7,6.9 8,8.4 6.5,8.9zm-306.8,13.4c-0.8,2.8 -1.8,10.7 -2.1,17.7c-0.3,7.1 -0.9,12.8 -1.2,12.8c-0.7,0 -23.5,-7.4 -24.1,-7.8c-0.3,-0.2 6,-6.6 14,-14.2c8,-7.6 14.6,-13.7 14.7,-13.6c0.1,0.1 -0.5,2.4 -1.3,5.1zm346.6,22.4c0,0.5 -16.1,5.9 -23.1,7.8c-1.4,0.4 -1.7,-1.3 -2.2,-12.4c-0.3,-7 -1.3,-15.1 -2.1,-17.8c-0.9,-2.8 -1.6,-5.1 -1.6,-5.3c0,-0.2 6.5,5.8 14.5,13.4c8,7.6 14.5,14 14.5,14.3zm-144.9,-7c5.9,3.3 19,7.1 24.5,7.1c3.1,0 3.3,0.2 2.9,2.7c-0.3,1.6 -1.9,13.8 -3.6,27.3c-5.1,40.9 -9.1,56.7 -16.2,62.6c-4,3.3 -5.8,2.8 -8.4,-2.6c-2.7,-5.5 -3.8,-15.4 -5.8,-54c-0.8,-15.7 -1.8,-33.2 -2.2,-39c-0.6,-10.2 -0.5,-10.5 1.3,-8.9c1,0.9 4.4,3.1 7.5,4.8z" id="svg_2"/>
  </a>
 </g>
</svg>