<svg width="33" height="23" viewBox="0 0 33 23" fill="none" xmlns="http://www.w3.org/2000/svg">
<path d="M16.698 0C16.728 1.54374e-06 26.7376 0.000891806 29.2429 0.686523C30.6163 1.05627 31.6993 2.13935 32.0691 3.5127C32.7557 6.02175 32.7292 11.251 32.7292 11.251C32.7292 11.2769 32.7277 16.4602 32.0691 18.9629C31.6993 20.3362 30.6162 21.4193 29.2429 21.7891C26.7375 22.4483 16.728 22.4492 16.698 22.4492C16.698 22.4492 6.68888 22.4493 4.15308 21.7627C2.77978 21.393 1.69669 20.3098 1.3269 18.9365C0.668622 16.4614 0.666754 11.2558 0.666748 11.2246C0.666748 11.2246 0.666672 6.02174 1.3269 3.5127C1.69665 2.13935 2.80614 1.0299 4.15308 0.660156C6.66234 -6.517e-05 16.698 0 16.698 0ZM13.5027 15.8477L21.8484 11.041L13.5027 6.23438V15.8477Z" fill="#9D9D9D"/>
</svg>
